# xmcd CD database file
#
# Track frame offsets:
#	151
#	14041
#	28877
#	42862
#	55096
#	68299
#	79780
#	92504
#	105061
#	119127
#	132610
#	145171
#	153245
#	166045
#	176945
#
# Disc length: 2518 seconds
#
# Revision: 2
# Processed by: cddbd v1.5.2PL0 Copyright (c) Steve Scherf et al.
# Submitted via: CDex 1.70beta2
#
DISCID=c109d40f
DTITLE=jazz - ジャズピアノ名演集７
DYEAR=1900
DGENRE=Jazz
TTITLE0=Your Socks Don`t Match
TTITLE1=Swingin` The Blues
TTITLE2=Elora
TTITLE3=Who Knows
TTITLE4=Conception
TTITLE5=Love Is The Sweetest Thing
TTITLE6=Always
TTITLE7=Mysterioso
TTITLE8=Rudy My Dear
TTITLE9=Tea For Two
TTITLE10=Somebody Loves Me
TTITLE11=Seven Come Eleven
TTITLE12=Boogie Misterioso
TTITLE13=Shine Oh,Harvest Moon
TTITLE14=Red Bank Boogie
EXTD=
EXTT0=
EXTT1=
EXTT2=
EXTT3=
EXTT4=
EXTT5=
EXTT6=
EXTT7=
EXTT8=
EXTT9=
EXTT10=
EXTT11=
EXTT12=
EXTT13=
EXTT14=
PLAYORDER=
